<svg width="19" height="133" viewBox="0 0 19 133" fill="none" xmlns="http://www.w3.org/2000/svg">
<path d="M18.4414 42.6406C17.9316 42.1819 17.082 42.1819 16.5722 42.6406L12.3241 46.4631V1.66342C12.3241 1.05182 11.8143 0.440216 10.9646 0.440216C10.2849 0.440216 9.60524 0.898916 9.60524 1.66342V83.6178L2.63825 77.3489C2.12847 76.8902 1.27883 76.8902 0.769054 77.3489C0.259274 77.8076 0.259274 78.5721 0.769054 79.0308L9.60524 86.9816V131.628C9.60524 132.24 10.115 132.852 10.9646 132.852C11.6444 132.852 12.3241 132.393 12.3241 131.628V49.9798L18.4414 44.4754C18.9512 43.8638 18.9512 43.0993 18.4414 42.6406Z" fill="#9155FD"/>
</svg>
